<?xml version="1.0" encoding="utf-8"?>
<!-- Generator: Adobe Illustrator 21.0.2, SVG Export Plug-In . SVG Version: 6.00 Build 0)  -->
<svg version="1.1" id="Calque_1" xmlns="http://www.w3.org/2000/svg" xmlns:xlink="http://www.w3.org/1999/xlink" x="0px" y="0px"
	 viewBox="0 0 186.4 80" style="enable-background:new 0 0 186.4 80;" xml:space="preserve">
<style type="text/css">
	.st0{fill:#20B0E7;}
	.st1{fill:#EF7D40;}
	.st2{fill:#009FE3;}
	.st3{fill:#FFFFFF;}
</style>
<g>
	<path class="st0" d="M186.4,40.8c0-0.1-0.1-0.2-0.1-0.3l-8.6-21.4l0,0l0-0.1c-0.2-0.5-0.7-0.8-1.3-0.8v0h-25.7v0
		c-0.3,0-0.6,0.1-0.8,0.3l1,2.5l4.1,10.3l0.4-1.1l0.7-1.7c0-0.1,0-0.1,0.1-0.2c0.2-0.3,0.5-0.5,0.8-0.5h1.6h10.7h0.4h0.3
		c0.5,0.1,0.8,0.3,1.1,0.7l0.1,0.3l0.2,0.4l4.5,11.2l0,0l0,0.1c0.1,0.1,0.1,0.3,0.1,0.5c0,0.2,0,0.3-0.1,0.5l0,0.1l0,0l-4.4,10.9
		l-0.3,0.8l-0.1,0.3c-0.2,0.4-0.7,0.7-1.2,0.7v0h-1.9h-10.7c0,0,0,0,0,0c-0.5,0-1-0.3-1.2-0.8c0-0.1-0.1-0.1-0.1-0.2c0,0,0,0,0,0
		l-1-2.4l-4.1,10.3l-1,2.5c0.2,0.2,0.5,0.3,0.8,0.3h25.7c0.5,0,1-0.3,1.2-0.8c0-0.1,0.1-0.1,0.1-0.2l8.5-21.3c0-0.1,0.1-0.2,0.1-0.3
		c0-0.1,0.1-0.2,0.1-0.4C186.4,41.1,186.4,40.9,186.4,40.8z"/>
	<path class="st1" d="M158.8,41.2c0-0.2,0-0.4-0.1-0.6l0,0l-3.7-9.3L150.8,21l-1-2.5c-0.2,0.1-0.3,0.3-0.4,0.5l-0.1,0.2l-4.6,11.6
		l0,0.1c0,0.1-0.1,0.3-0.1,0.5c0,0.1,0,0.2,0,0.3l0.1,0.4l3.7,9.2l-3.7,9.2c0,0.1-0.1,0.2-0.1,0.3c0,0.1-0.1,0.2-0.1,0.4
		c0,0.1,0,0.3,0.1,0.4c0,0.1,0.1,0.2,0.1,0.3l4.6,11.5l0,0.1c0.1,0.2,0.2,0.4,0.4,0.5l1-2.5l4.1-10.3l3.7-9.3l0,0
		C158.8,41.6,158.8,41.4,158.8,41.2z"/>
	<path class="st2" d="M165.6,32l-0.1-0.4C165.5,31.8,165.5,31.9,165.6,32z"/>
</g>
<g>
	<path class="st3" d="M17.5,65.4V30.8c0-3.3-0.1-7.3-4.1-8.4c-0.3-0.1-1.2-0.3-2-0.3c-3.9,0-6,2.9-6.6,3.9c-0.6,0.9-0.8,2-0.8,2.3
		v37H0V0h4l0.1,22.4c0.7-0.8,2-2.5,4.7-3.5c1.6-0.6,3.1-0.6,3.6-0.6c1.7,0,2.7,0.4,3.3,0.6c1.5,0.6,4.2,1.8,5.3,5.6
		c0.5,1.5,0.5,2.5,0.5,4v36.9H17.5z"/>
	<path class="st3" d="M49.1,61.7c-2.9,3.8-7.2,3.8-8.7,3.8c-1.3,0-2.8-0.2-4-0.6c-1.2-0.4-4.5-1.9-5.8-5.6c-0.6-1.4-0.7-2.5-0.7-5.2
		V29.6c0-0.7,0-2.4,0.6-4.4c0.8-2.7,3.1-6.8,10-6.8c5,0,7.6,2.2,8.9,4.1c1.9,3,1.9,7.1,1.9,10.6v9.4H33.7V54c0,0.4,0,1.9,0.4,3.3
		c0.6,1.9,1.9,4.5,6.6,4.5c0.6,0,3-0.1,4.6-1.7c0.3-0.3,0.9-0.9,1.3-2c0.7-2,0.6-4.4,0.6-9h3.9v5.3C51.1,57.2,50.8,59.4,49.1,61.7z
		 M47.1,30.6c0-4.1-1-6.1-2.6-7.3c-0.6-0.5-2-1.3-4.1-1.3c-0.6,0-2.5,0.1-4.1,1.3c-2.5,1.9-2.7,4.8-2.7,7.7v8.1h13.4V30.6z"/>
	<path class="st3" d="M76.1,65.4l-7.9-20.9l-8,20.9h-4.4L66,41.1l-9.3-22.3H61l7.2,18.3l7.4-18.3h4.3l-9.4,21.9l9.9,24.7H76.1z"/>
	<path class="st3" d="M105.7,64.1c-0.6-0.6-0.9-0.9-1.3-2.3c-1.3,1-4.3,3.6-9,3.6c-6.5,0-9.1-5.2-9.1-10.9c0-3.6,0.9-5.9,1.7-7.3
		c2.7-4.9,7.8-6.8,12.2-9.3c1.9-1,2.5-1.4,4.1-2.7v-5.3c0-2.4,0.1-5.2-2.2-6.8c-1.1-0.8-2.3-0.8-3.7-0.8c-3.4,0-4.6,1.5-5.3,3
		c-1,2.2-0.9,5.5-0.8,7.9h-4c0-5.1,0-7.1,1.1-9.5c2.3-5.2,8.1-5.1,9.5-5.1c1.9,0,3.7,0.4,5.5,1.3c3.6,2,4,5.3,4,9v31.3
		c0.2,1.7,1.5,1.6,2.8,1.6v3.7C108.2,65.4,106.8,65.1,105.7,64.1z M104.4,39.5c-0.9,0.7-1.9,1.4-3,1.9c-1.6,0.9-3.1,1.7-4.6,2.5
		c-4.3,2.6-6.5,5.5-6.5,10.6c0,1.5,0.3,7.1,6.1,7.1c3.6,0,5.7-1.9,8-4.4V39.5z"/>
	<path class="st3" d="M138.1,73.1c-1.7,4.8-6,6.9-10.8,6.9c-3.4,0-7.7-1.3-9.3-4.7c-0.6-1.3-0.8-2.5-1-5.2h4c0.1,0.4,0,2,0.6,3.4
		c1.4,2.7,5.2,2.7,5.7,2.7c0.9,0,5.3-0.3,6.9-3.9c0.4-0.8,0.6-1.7,0.6-3.4v-7.7c-1.1,1.1-3.5,4.1-8.1,4.1c-0.8,0-3.1-0.2-5-1.4
		c-4.2-2.6-4.2-7.2-4.2-11.5V28.9c0-1.8,0.1-3.1,0.6-4.8c1.9-5.5,7.3-5.7,8.9-5.7c4.6,0,6.9,3,7.8,4.3v-3.8h4v48.8
		C138.8,68.4,139,70.6,138.1,73.1z M134.9,28.4c-0.6-3.5-3.3-6.6-7.2-6.5c-0.5,0-2.1,0.1-3.4,0.9c-2.9,1.9-2.9,5.3-2.9,8.2v21.5
		c0,2.8,0,5.9,2.4,7.8c1.6,1.1,3.1,1.1,3.8,1.1c1.3,0,4.3-0.6,6.1-3.7c0.5-0.8,0.7-1.5,1.2-3.2V28.4z"/>
</g>
</svg>
