<?xml version="1.0" encoding="utf-8"?>
<!-- Generator: Adobe Illustrator 21.0.2, SVG Export Plug-In . SVG Version: 6.00 Build 0)  -->
<svg version="1.1" id="Calque_1" xmlns="http://www.w3.org/2000/svg" xmlns:xlink="http://www.w3.org/1999/xlink" x="0px" y="0px"
	 viewBox="0 0 41.8 46" style="enable-background:new 0 0 41.8 46;" xml:space="preserve">
<style type="text/css">
	.st0{fill:#20B0E7;}
	.st1{fill:#EF7D40;}
	.st2{fill:#009FE3;}
</style>
<path class="st0" d="M41.8,22.6c0-0.1-0.1-0.2-0.1-0.3L33.1,0.9l0,0l0-0.1C32.8,0.3,32.3,0,31.8,0v0H6.1v0C5.8,0,5.5,0.1,5.3,0.3
	l1,2.5l4.1,10.3l0.4-1.1l0.7-1.7c0-0.1,0-0.1,0.1-0.2c0.2-0.3,0.5-0.5,0.8-0.5h1.6h10.7H25h0.3c0.5,0.1,0.8,0.3,1.1,0.7l0.1,0.3
	l0.2,0.4l4.5,11.2l0,0l0,0.1c0.1,0.1,0.1,0.3,0.1,0.5c0,0.2,0,0.3-0.1,0.5l0,0.1l0,0l-4.4,10.9l-0.3,0.8l-0.1,0.3
	c-0.2,0.4-0.7,0.7-1.2,0.7v0h-1.9H12.7c0,0,0,0,0,0c-0.5,0-1-0.3-1.2-0.8c0-0.1-0.1-0.1-0.1-0.2c0,0,0,0,0,0l-1-2.4L6.2,43.2l-1,2.5
	C5.5,45.8,5.8,46,6.1,46h25.7c0.5,0,1-0.3,1.2-0.8c0-0.1,0.1-0.1,0.1-0.2l8.5-21.3c0-0.1,0.1-0.2,0.1-0.3c0-0.1,0.1-0.2,0.1-0.4
	C41.8,22.8,41.8,22.7,41.8,22.6z"/>
<path class="st1" d="M14.2,23c0-0.2,0-0.4-0.1-0.6l0,0l-3.7-9.3L6.2,2.7l-1-2.5C5.1,0.4,4.9,0.6,4.8,0.8L4.7,1L0.1,12.5l0,0.1
	C0,12.8,0,13,0,13.1c0,0.1,0,0.2,0,0.3l0.1,0.4L3.9,23l-3.7,9.2c0,0.1-0.1,0.2-0.1,0.3C0,32.6,0,32.7,0,32.9c0,0.1,0,0.3,0.1,0.4
	c0,0.1,0.1,0.2,0.1,0.3L4.8,45l0,0.1c0.1,0.2,0.2,0.4,0.4,0.5l1-2.5l4.1-10.3l3.7-9.3l0,0C14.2,23.4,14.2,23.2,14.2,23z"/>
<path class="st2" d="M21,13.8l-0.1-0.4C20.9,13.6,20.9,13.7,21,13.8z"/>
</svg>
